<?xml version="1.0" encoding="utf-8"?>
<!-- Generator: Adobe Illustrator 26.3.1, SVG Export Plug-In . SVG Version: 6.00 Build 0)  -->
<svg version="1.1" id="Layer_1" xmlns="http://www.w3.org/2000/svg" xmlns:xlink="http://www.w3.org/1999/xlink" x="0px" y="0px"
	 viewBox="0 0 740 170" style="enable-background:new 0 0 740 170;" xml:space="preserve">
<style type="text/css">
	.st0{fill:#7FB100;}
	.st1{fill:#1C1D1B;}
	.st2{fill:#FFFFFF;}
</style>
<g>
	<g>
		<path class="st0" d="M264.31,131.93l-0.27-49.75l-24.14,38.15h-11.8l-24-36.81v48.41h-24.54V38.07h21.86l32.99,51.83l32.18-51.83
			h22.13v93.87H264.31z"/>
		<path class="st0" d="M373.51,61.53v70.4h-22.75v-7.92c-4.44,5.28-11.15,7.92-20.11,7.92c-6.2,0-11.84-1.45-16.91-4.34
			c-5.07-2.89-9.09-7.02-12.07-12.38c-2.98-5.36-4.46-11.57-4.46-18.61s1.49-13.22,4.46-18.54c2.97-5.32,7-9.41,12.07-12.26
			c5.07-2.85,10.7-4.27,16.91-4.27c8.05,0,14.37,2.35,18.98,7.04v-7.04H373.51z M345.98,108.61c2.68-2.89,4.02-6.89,4.02-12.01
			c0-5.03-1.34-8.97-4.02-11.82c-2.68-2.85-6.12-4.27-10.31-4.27c-4.19,0-7.63,1.43-10.31,4.27c-2.68,2.85-4.02,6.79-4.02,11.82
			c0,5.11,1.34,9.11,4.02,12.01c2.68,2.89,6.12,4.34,10.31,4.34C339.86,112.95,343.3,111.5,345.98,108.61z"/>
		<path class="st0" d="M481.74,70.21c5.15,5.03,7.73,12.61,7.73,22.76v38.97h-23.89V96.86c0-9.3-3.73-13.96-11.19-13.96
			c-4.11,0-7.4,1.34-9.87,4.02c-2.47,2.68-3.71,6.71-3.71,12.07v32.94h-23.89v-70.4h23.89v9.68c2.68-2.77,4.73-4.88,8.42-6.35
			c3.69-1.47,7.71-2.2,12.07-2.2C469.78,62.66,476.59,65.18,481.74,70.21z"/>
		<path class="st1" d="M639.18,38.07l-30.44,93.87h-28.43l-17.97-57.13l-18.77,57.13h-28.43L484.7,38.07h27.36l18.91,59.94
			l19.85-59.94h24.41l18.91,60.48l19.71-60.48H639.18z"/>
		<path class="st1" d="M714.35,42.29c6.26,2.82,11.08,6.84,14.48,12.07c3.4,5.23,5.1,11.38,5.1,18.44c0,7.06-1.7,14.36-5.1,19.54
			c-3.4,5.19-8.23,9.19-14.48,12c-6.26,2.82-13.63,4.22-22.13,4.22h-16.36v23.37h-26.55V38.07h42.91
			C700.71,38.07,708.09,39.47,714.35,42.29z M702.95,84.09c2.77-2.37,4.16-4.57,4.16-8.95c0-4.38-1.39-7.78-4.16-10.19
			c-2.77-2.41-6.88-3.62-12.34-3.62h-14.75v26.32h14.75C696.06,87.65,700.18,86.46,702.95,84.09z"/>
		<g>
			<circle class="st0" cx="395.22" cy="48.63" r="10.56"/>
			<rect x="383.49" y="61.53" class="st0" width="23.47" height="70.4"/>
		</g>
	</g>
	<g>
		<circle class="st0" cx="84.75" cy="85" r="78.67"/>
		<g>
			<circle class="st2" cx="84.75" cy="37.8" r="15.73"/>
			<polygon class="st2" points="111.49,132.2 84.75,147.94 58,132.2 84.75,22.06 			"/>
		</g>
	</g>
</g>
</svg>
